<svg xmlns="http://www.w3.org/2000/svg" viewBox="0 0 1278 126" fill="#ffffff"><rect x="36" y="0" width="18" height="18"/><rect x="54" y="0" width="18" height="18"/><rect x="72" y="0" width="18" height="18"/><rect x="18" y="18" width="18" height="18"/><rect x="36" y="18" width="18" height="18"/><rect x="72" y="18" width="18" height="18"/><rect x="90" y="18" width="18" height="18"/><rect x="0" y="36" width="18" height="18"/><rect x="18" y="36" width="18" height="18"/><rect x="90" y="36" width="18" height="18"/><rect x="108" y="36" width="18" height="18"/><rect x="0" y="54" width="18" height="18"/><rect x="18" y="54" width="18" height="18"/><rect x="90" y="54" width="18" height="18"/><rect x="108" y="54" width="18" height="18"/><rect x="0" y="72" width="18" height="18"/><rect x="18" y="72" width="18" height="18"/><rect x="36" y="72" width="18" height="18"/><rect x="54" y="72" width="18" height="18"/><rect x="72" y="72" width="18" height="18"/><rect x="90" y="72" width="18" height="18"/><rect x="108" y="72" width="18" height="18"/><rect x="0" y="90" width="18" height="18"/><rect x="18" y="90" width="18" height="18"/><rect x="90" y="90" width="18" height="18"/><rect x="108" y="90" width="18" height="18"/><rect x="0" y="108" width="18" height="18"/><rect x="18" y="108" width="18" height="18"/><rect x="90" y="108" width="18" height="18"/><rect x="108" y="108" width="18" height="18"/><rect x="162" y="0" width="18" height="18"/><rect x="180" y="0" width="18" height="18"/><rect x="198" y="0" width="18" height="18"/><rect x="216" y="0" width="18" height="18"/><rect x="234" y="0" width="18" height="18"/><rect x="144" y="18" width="18" height="18"/><rect x="162" y="18" width="18" height="18"/><rect x="144" y="36" width="18" height="18"/><rect x="162" y="36" width="18" height="18"/><rect x="144" y="54" width="18" height="18"/><rect x="162" y="54" width="18" height="18"/><rect x="216" y="54" width="18" height="18"/><rect x="234" y="54" width="18" height="18"/><rect x="252" y="54" width="18" height="18"/><rect x="144" y="72" width="18" height="18"/><rect x="162" y="72" width="18" height="18"/><rect x="234" y="72" width="18" height="18"/><rect x="252" y="72" width="18" height="18"/><rect x="144" y="90" width="18" height="18"/><rect x="162" y="90" width="18" height="18"/><rect x="234" y="90" width="18" height="18"/><rect x="252" y="90" width="18" height="18"/><rect x="162" y="108" width="18" height="18"/><rect x="180" y="108" width="18" height="18"/><rect x="198" y="108" width="18" height="18"/><rect x="216" y="108" width="18" height="18"/><rect x="234" y="108" width="18" height="18"/><rect x="288" y="0" width="18" height="18"/><rect x="306" y="0" width="18" height="18"/><rect x="324" y="0" width="18" height="18"/><rect x="342" y="0" width="18" height="18"/><rect x="360" y="0" width="18" height="18"/><rect x="378" y="0" width="18" height="18"/><rect x="396" y="0" width="18" height="18"/><rect x="288" y="18" width="18" height="18"/><rect x="306" y="18" width="18" height="18"/><rect x="288" y="36" width="18" height="18"/><rect x="306" y="36" width="18" height="18"/><rect x="288" y="54" width="18" height="18"/><rect x="306" y="54" width="18" height="18"/><rect x="324" y="54" width="18" height="18"/><rect x="342" y="54" width="18" height="18"/><rect x="360" y="54" width="18" height="18"/><rect x="378" y="54" width="18" height="18"/><rect x="288" y="72" width="18" height="18"/><rect x="306" y="72" width="18" height="18"/><rect x="288" y="90" width="18" height="18"/><rect x="306" y="90" width="18" height="18"/><rect x="288" y="108" width="18" height="18"/><rect x="306" y="108" width="18" height="18"/><rect x="324" y="108" width="18" height="18"/><rect x="342" y="108" width="18" height="18"/><rect x="360" y="108" width="18" height="18"/><rect x="378" y="108" width="18" height="18"/><rect x="396" y="108" width="18" height="18"/><rect x="432" y="0" width="18" height="18"/><rect x="450" y="0" width="18" height="18"/><rect x="522" y="0" width="18" height="18"/><rect x="540" y="0" width="18" height="18"/><rect x="432" y="18" width="18" height="18"/><rect x="450" y="18" width="18" height="18"/><rect x="468" y="18" width="18" height="18"/><rect x="522" y="18" width="18" height="18"/><rect x="540" y="18" width="18" height="18"/><rect x="432" y="36" width="18" height="18"/><rect x="450" y="36" width="18" height="18"/><rect x="486" y="36" width="18" height="18"/><rect x="522" y="36" width="18" height="18"/><rect x="540" y="36" width="18" height="18"/><rect x="432" y="54" width="18" height="18"/><rect x="450" y="54" width="18" height="18"/><rect x="504" y="54" width="18" height="18"/><rect x="522" y="54" width="18" height="18"/><rect x="540" y="54" width="18" height="18"/><rect x="432" y="72" width="18" height="18"/><rect x="450" y="72" width="18" height="18"/><rect x="522" y="72" width="18" height="18"/><rect x="540" y="72" width="18" height="18"/><rect x="432" y="90" width="18" height="18"/><rect x="450" y="90" width="18" height="18"/><rect x="522" y="90" width="18" height="18"/><rect x="540" y="90" width="18" height="18"/><rect x="432" y="108" width="18" height="18"/><rect x="450" y="108" width="18" height="18"/><rect x="522" y="108" width="18" height="18"/><rect x="540" y="108" width="18" height="18"/><rect x="576" y="0" width="18" height="18"/><rect x="594" y="0" width="18" height="18"/><rect x="612" y="0" width="18" height="18"/><rect x="630" y="0" width="18" height="18"/><rect x="648" y="0" width="18" height="18"/><rect x="666" y="0" width="18" height="18"/><rect x="684" y="0" width="18" height="18"/><rect x="630" y="18" width="18" height="18"/><rect x="648" y="18" width="18" height="18"/><rect x="630" y="36" width="18" height="18"/><rect x="648" y="36" width="18" height="18"/><rect x="630" y="54" width="18" height="18"/><rect x="648" y="54" width="18" height="18"/><rect x="630" y="72" width="18" height="18"/><rect x="648" y="72" width="18" height="18"/><rect x="630" y="90" width="18" height="18"/><rect x="648" y="90" width="18" height="18"/><rect x="630" y="108" width="18" height="18"/><rect x="648" y="108" width="18" height="18"/><rect x="756" y="0" width="18" height="18"/><rect x="774" y="0" width="18" height="18"/><rect x="792" y="0" width="18" height="18"/><rect x="810" y="0" width="18" height="18"/><rect x="828" y="0" width="18" height="18"/><rect x="792" y="18" width="18" height="18"/><rect x="810" y="18" width="18" height="18"/><rect x="792" y="36" width="18" height="18"/><rect x="810" y="36" width="18" height="18"/><rect x="792" y="54" width="18" height="18"/><rect x="810" y="54" width="18" height="18"/><rect x="720" y="72" width="18" height="18"/><rect x="738" y="72" width="18" height="18"/><rect x="792" y="72" width="18" height="18"/><rect x="810" y="72" width="18" height="18"/><rect x="720" y="90" width="18" height="18"/><rect x="738" y="90" width="18" height="18"/><rect x="792" y="90" width="18" height="18"/><rect x="810" y="90" width="18" height="18"/><rect x="738" y="108" width="18" height="18"/><rect x="756" y="108" width="18" height="18"/><rect x="774" y="108" width="18" height="18"/><rect x="792" y="108" width="18" height="18"/><rect x="900" y="0" width="18" height="18"/><rect x="918" y="0" width="18" height="18"/><rect x="936" y="0" width="18" height="18"/><rect x="882" y="18" width="18" height="18"/><rect x="900" y="18" width="18" height="18"/><rect x="936" y="18" width="18" height="18"/><rect x="954" y="18" width="18" height="18"/><rect x="864" y="36" width="18" height="18"/><rect x="882" y="36" width="18" height="18"/><rect x="954" y="36" width="18" height="18"/><rect x="972" y="36" width="18" height="18"/><rect x="864" y="54" width="18" height="18"/><rect x="882" y="54" width="18" height="18"/><rect x="954" y="54" width="18" height="18"/><rect x="972" y="54" width="18" height="18"/><rect x="864" y="72" width="18" height="18"/><rect x="882" y="72" width="18" height="18"/><rect x="900" y="72" width="18" height="18"/><rect x="918" y="72" width="18" height="18"/><rect x="936" y="72" width="18" height="18"/><rect x="954" y="72" width="18" height="18"/><rect x="972" y="72" width="18" height="18"/><rect x="864" y="90" width="18" height="18"/><rect x="882" y="90" width="18" height="18"/><rect x="954" y="90" width="18" height="18"/><rect x="972" y="90" width="18" height="18"/><rect x="864" y="108" width="18" height="18"/><rect x="882" y="108" width="18" height="18"/><rect x="954" y="108" width="18" height="18"/><rect x="972" y="108" width="18" height="18"/><rect x="1008" y="0" width="18" height="18"/><rect x="1026" y="0" width="18" height="18"/><rect x="1044" y="0" width="18" height="18"/><rect x="1062" y="0" width="18" height="18"/><rect x="1080" y="0" width="18" height="18"/><rect x="1098" y="0" width="18" height="18"/><rect x="1116" y="0" width="18" height="18"/><rect x="1062" y="18" width="18" height="18"/><rect x="1080" y="18" width="18" height="18"/><rect x="1062" y="36" width="18" height="18"/><rect x="1080" y="36" width="18" height="18"/><rect x="1062" y="54" width="18" height="18"/><rect x="1080" y="54" width="18" height="18"/><rect x="1062" y="72" width="18" height="18"/><rect x="1080" y="72" width="18" height="18"/><rect x="1062" y="90" width="18" height="18"/><rect x="1080" y="90" width="18" height="18"/><rect x="1008" y="108" width="18" height="18"/><rect x="1026" y="108" width="18" height="18"/><rect x="1044" y="108" width="18" height="18"/><rect x="1062" y="108" width="18" height="18"/><rect x="1080" y="108" width="18" height="18"/><rect x="1098" y="108" width="18" height="18"/><rect x="1116" y="108" width="18" height="18"/><rect x="1152" y="0" width="18" height="18"/><rect x="1170" y="0" width="18" height="18"/><rect x="1152" y="18" width="18" height="18"/><rect x="1170" y="18" width="18" height="18"/><rect x="1152" y="36" width="18" height="18"/><rect x="1170" y="36" width="18" height="18"/><rect x="1152" y="54" width="18" height="18"/><rect x="1170" y="54" width="18" height="18"/><rect x="1152" y="72" width="18" height="18"/><rect x="1170" y="72" width="18" height="18"/><rect x="1152" y="90" width="18" height="18"/><rect x="1170" y="90" width="18" height="18"/><rect x="1152" y="108" width="18" height="18"/><rect x="1170" y="108" width="18" height="18"/><rect x="1188" y="108" width="18" height="18"/><rect x="1206" y="108" width="18" height="18"/><rect x="1224" y="108" width="18" height="18"/><rect x="1242" y="108" width="18" height="18"/><rect x="1260" y="108" width="18" height="18"/></svg>
