<svg xmlns="http://www.w3.org/2000/svg" viewBox="0 0 32 32">
  <rect width="32" height="32" rx="7" fill="#0A0A0B"/>
  <g fill="#F5A623">
    <rect x="14.050" y="11.450" width="1.3" height="1.3"/>
    <rect x="15.350" y="11.450" width="1.3" height="1.3"/>
    <rect x="16.650" y="11.450" width="1.3" height="1.3"/>
    <rect x="12.750" y="12.750" width="1.3" height="1.3"/>
    <rect x="14.050" y="12.750" width="1.3" height="1.3"/>
    <rect x="15.350" y="12.750" width="1.3" height="1.3"/>
    <rect x="16.650" y="12.750" width="1.3" height="1.3"/>
    <rect x="17.950" y="12.750" width="1.3" height="1.3"/>
    <rect x="11.450" y="14.050" width="1.3" height="1.3"/>
    <rect x="12.750" y="14.050" width="1.3" height="1.3"/>
    <rect x="14.050" y="14.050" width="1.3" height="1.3"/>
    <rect x="15.350" y="14.050" width="1.3" height="1.3"/>
    <rect x="16.650" y="14.050" width="1.3" height="1.3"/>
    <rect x="17.950" y="14.050" width="1.3" height="1.3"/>
    <rect x="19.250" y="14.050" width="1.3" height="1.3"/>
    <rect x="11.450" y="15.350" width="1.3" height="1.3"/>
    <rect x="12.750" y="15.350" width="1.3" height="1.3"/>
    <rect x="14.050" y="15.350" width="1.3" height="1.3"/>
    <rect x="15.350" y="15.350" width="1.3" height="1.3"/>
    <rect x="16.650" y="15.350" width="1.3" height="1.3"/>
    <rect x="17.950" y="15.350" width="1.3" height="1.3"/>
    <rect x="19.250" y="15.350" width="1.3" height="1.3"/>
    <rect x="11.450" y="16.650" width="1.3" height="1.3"/>
    <rect x="12.750" y="16.650" width="1.3" height="1.3"/>
    <rect x="14.050" y="16.650" width="1.3" height="1.3"/>
    <rect x="15.350" y="16.650" width="1.3" height="1.3"/>
    <rect x="16.650" y="16.650" width="1.3" height="1.3"/>
    <rect x="17.950" y="16.650" width="1.3" height="1.3"/>
    <rect x="19.250" y="16.650" width="1.3" height="1.3"/>
    <rect x="12.750" y="17.950" width="1.3" height="1.3"/>
    <rect x="14.050" y="17.950" width="1.3" height="1.3"/>
    <rect x="15.350" y="17.950" width="1.3" height="1.3"/>
    <rect x="16.650" y="17.950" width="1.3" height="1.3"/>
    <rect x="17.950" y="17.950" width="1.3" height="1.3"/>
    <rect x="14.050" y="19.250" width="1.3" height="1.3"/>
    <rect x="15.350" y="19.250" width="1.3" height="1.3"/>
    <rect x="16.650" y="19.250" width="1.3" height="1.3"/>
  </g>
  <g fill="#FBEFD8"><rect x="10.875" y="6.5" width="1.25" height="19"/><rect x="13.875" y="6.5" width="1.25" height="19"/><rect x="16.875" y="6.5" width="1.25" height="19"/><rect x="19.875" y="6.5" width="1.25" height="19"/></g>
</svg>
