<svg viewBox="0 0 1584 396" xmlns="http://www.w3.org/2000/svg" width="1584" height="396"><defs><filter id="bshadow" x="-10%" y="-10%" width="130%" height="150%"><feOffset dx="0" dy="2" in="SourceAlpha" result="off"/><feGaussianBlur in="off" stdDeviation="3" result="blur"/><feFlood flood-color="#000" flood-opacity="0.25" result="color"/><feComposite in="color" in2="blur" operator="in" result="shadow"/><feMerge><feMergeNode in="shadow"/><feMergeNode in="SourceGraphic"/></feMerge></filter><linearGradient id="gGray" x1="0" y1="0" x2="0" y2="1"><stop offset="0" style="stop-color:#777"/><stop offset="0.5" style="stop-color:#555"/><stop offset="1" style="stop-color:#444"/></linearGradient><linearGradient id="gGreen" x1="0" y1="0" x2="0" y2="1"><stop offset="0" style="stop-color:#b0e000"/><stop offset="0.5" style="stop-color:#97CA00"/><stop offset="1" style="stop-color:#7aaa00"/></linearGradient><linearGradient id="gDark" x1="0" y1="0" x2="0" y2="1"><stop offset="0" style="stop-color:#3a3a3a"/><stop offset="0.5" style="stop-color:#2a2a2a"/><stop offset="1" style="stop-color:#1a1a1a"/></linearGradient></defs><rect width="1584" height="396" fill="#f5f0eb"/><g transform="translate(75,30) scale(4.5)"><rect width="32" height="32" rx="7" fill="#0A0A0B"/><g fill="#F5A623"><rect x="14.050" y="11.450" width="1.3" height="1.3"/><rect x="15.350" y="11.450" width="1.3" height="1.3"/><rect x="16.650" y="11.450" width="1.3" height="1.3"/><rect x="12.750" y="12.750" width="1.3" height="1.3"/><rect x="14.050" y="12.750" width="1.3" height="1.3"/><rect x="15.350" y="12.750" width="1.3" height="1.3"/><rect x="16.650" y="12.750" width="1.3" height="1.3"/><rect x="17.950" y="12.750" width="1.3" height="1.3"/><rect x="11.450" y="14.050" width="1.3" height="1.3"/><rect x="12.750" y="14.050" width="1.3" height="1.3"/><rect x="14.050" y="14.050" width="1.3" height="1.3"/><rect x="15.350" y="14.050" width="1.3" height="1.3"/><rect x="16.650" y="14.050" width="1.3" height="1.3"/><rect x="17.950" y="14.050" width="1.3" height="1.3"/><rect x="19.250" y="14.050" width="1.3" height="1.3"/><rect x="11.450" y="15.350" width="1.3" height="1.3"/><rect x="12.750" y="15.350" width="1.3" height="1.3"/><rect x="14.050" y="15.350" width="1.3" height="1.3"/><rect x="15.350" y="15.350" width="1.3" height="1.3"/><rect x="16.650" y="15.350" width="1.3" height="1.3"/><rect x="17.950" y="15.350" width="1.3" height="1.3"/><rect x="19.250" y="15.350" width="1.3" height="1.3"/><rect x="11.450" y="16.650" width="1.3" height="1.3"/><rect x="12.750" y="16.650" width="1.3" height="1.3"/><rect x="14.050" y="16.650" width="1.3" height="1.3"/><rect x="15.350" y="16.650" width="1.3" height="1.3"/><rect x="16.650" y="16.650" width="1.3" height="1.3"/><rect x="17.950" y="16.650" width="1.3" height="1.3"/><rect x="19.250" y="16.650" width="1.3" height="1.3"/><rect x="12.750" y="17.950" width="1.3" height="1.3"/><rect x="14.050" y="17.950" width="1.3" height="1.3"/><rect x="15.350" y="17.950" width="1.3" height="1.3"/><rect x="16.650" y="17.950" width="1.3" height="1.3"/><rect x="17.950" y="17.950" width="1.3" height="1.3"/><rect x="14.050" y="19.250" width="1.3" height="1.3"/><rect x="15.350" y="19.250" width="1.3" height="1.3"/><rect x="16.650" y="19.250" width="1.3" height="1.3"/></g><g fill="#FBEFD8"><rect x="10.875" y="6.5" width="1.25" height="19"/><rect x="13.875" y="6.5" width="1.25" height="19"/><rect x="16.875" y="6.5" width="1.25" height="19"/><rect x="19.875" y="6.5" width="1.25" height="19"/></g></g><rect x="280" y="43.5" width="12" height="12" fill="#1a1a1a"/><rect x="293" y="43.5" width="12" height="12" fill="#1a1a1a"/><rect x="306" y="43.5" width="12" height="12" fill="#1a1a1a"/><rect x="319" y="43.5" width="12" height="12" fill="#1a1a1a"/><rect x="267" y="56.5" width="12" height="12" fill="#1a1a1a"/><rect x="280" y="56.5" width="12" height="12" fill="#1a1a1a"/><rect x="319" y="56.5" width="12" height="12" fill="#1a1a1a"/><rect x="332" y="56.5" width="12" height="12" fill="#1a1a1a"/><rect x="254" y="69.5" width="12" height="12" fill="#1a1a1a"/><rect x="267" y="69.5" width="12" height="12" fill="#1a1a1a"/><rect x="332" y="69.5" width="12" height="12" fill="#1a1a1a"/><rect x="345" y="69.5" width="12" height="12" fill="#1a1a1a"/><rect x="254" y="82.5" width="12" height="12" fill="#1a1a1a"/><rect x="267" y="82.5" width="12" height="12" fill="#1a1a1a"/><rect x="332" y="82.5" width="12" height="12" fill="#1a1a1a"/><rect x="345" y="82.5" width="12" height="12" fill="#1a1a1a"/><rect x="254" y="95.5" width="12" height="12" fill="#1a1a1a"/><rect x="267" y="95.5" width="12" height="12" fill="#1a1a1a"/><rect x="280" y="95.5" width="12" height="12" fill="#1a1a1a"/><rect x="293" y="95.5" width="12" height="12" fill="#1a1a1a"/><rect x="306" y="95.5" width="12" height="12" fill="#1a1a1a"/><rect x="319" y="95.5" width="12" height="12" fill="#1a1a1a"/><rect x="332" y="95.5" width="12" height="12" fill="#1a1a1a"/><rect x="345" y="95.5" width="12" height="12" fill="#1a1a1a"/><rect x="254" y="108.5" width="12" height="12" fill="#1a1a1a"/><rect x="267" y="108.5" width="12" height="12" fill="#1a1a1a"/><rect x="332" y="108.5" width="12" height="12" fill="#1a1a1a"/><rect x="345" y="108.5" width="12" height="12" fill="#1a1a1a"/><rect x="254" y="121.5" width="12" height="12" fill="#1a1a1a"/><rect x="267" y="121.5" width="12" height="12" fill="#1a1a1a"/><rect x="332" y="121.5" width="12" height="12" fill="#1a1a1a"/><rect x="345" y="121.5" width="12" height="12" fill="#1a1a1a"/><rect x="254" y="134.5" width="12" height="12" fill="#1a1a1a"/><rect x="267" y="134.5" width="12" height="12" fill="#1a1a1a"/><rect x="332" y="134.5" width="12" height="12" fill="#1a1a1a"/><rect x="345" y="134.5" width="12" height="12" fill="#1a1a1a"/><rect x="254" y="147.5" width="12" height="12" fill="#1a1a1a"/><rect x="267" y="147.5" width="12" height="12" fill="#1a1a1a"/><rect x="332" y="147.5" width="12" height="12" fill="#1a1a1a"/><rect x="345" y="147.5" width="12" height="12" fill="#1a1a1a"/><rect x="397" y="43.5" width="12" height="12" fill="#1a1a1a"/><rect x="410" y="43.5" width="12" height="12" fill="#1a1a1a"/><rect x="423" y="43.5" width="12" height="12" fill="#1a1a1a"/><rect x="436" y="43.5" width="12" height="12" fill="#1a1a1a"/><rect x="449" y="43.5" width="12" height="12" fill="#1a1a1a"/><rect x="462" y="43.5" width="12" height="12" fill="#1a1a1a"/><rect x="384" y="56.5" width="12" height="12" fill="#1a1a1a"/><rect x="397" y="56.5" width="12" height="12" fill="#1a1a1a"/><rect x="462" y="56.5" width="12" height="12" fill="#1a1a1a"/><rect x="475" y="56.5" width="12" height="12" fill="#1a1a1a"/><rect x="384" y="69.5" width="12" height="12" fill="#1a1a1a"/><rect x="397" y="69.5" width="12" height="12" fill="#1a1a1a"/><rect x="384" y="82.5" width="12" height="12" fill="#1a1a1a"/><rect x="397" y="82.5" width="12" height="12" fill="#1a1a1a"/><rect x="384" y="95.5" width="12" height="12" fill="#1a1a1a"/><rect x="397" y="95.5" width="12" height="12" fill="#1a1a1a"/><rect x="436" y="95.5" width="12" height="12" fill="#1a1a1a"/><rect x="449" y="95.5" width="12" height="12" fill="#1a1a1a"/><rect x="462" y="95.5" width="12" height="12" fill="#1a1a1a"/><rect x="475" y="95.5" width="12" height="12" fill="#1a1a1a"/><rect x="384" y="108.5" width="12" height="12" fill="#1a1a1a"/><rect x="397" y="108.5" width="12" height="12" fill="#1a1a1a"/><rect x="462" y="108.5" width="12" height="12" fill="#1a1a1a"/><rect x="475" y="108.5" width="12" height="12" fill="#1a1a1a"/><rect x="384" y="121.5" width="12" height="12" fill="#1a1a1a"/><rect x="397" y="121.5" width="12" height="12" fill="#1a1a1a"/><rect x="462" y="121.5" width="12" height="12" fill="#1a1a1a"/><rect x="475" y="121.5" width="12" height="12" fill="#1a1a1a"/><rect x="384" y="134.5" width="12" height="12" fill="#1a1a1a"/><rect x="397" y="134.5" width="12" height="12" fill="#1a1a1a"/><rect x="462" y="134.5" width="12" height="12" fill="#1a1a1a"/><rect x="475" y="134.5" width="12" height="12" fill="#1a1a1a"/><rect x="397" y="147.5" width="12" height="12" fill="#1a1a1a"/><rect x="410" y="147.5" width="12" height="12" fill="#1a1a1a"/><rect x="423" y="147.5" width="12" height="12" fill="#1a1a1a"/><rect x="436" y="147.5" width="12" height="12" fill="#1a1a1a"/><rect x="449" y="147.5" width="12" height="12" fill="#1a1a1a"/><rect x="462" y="147.5" width="12" height="12" fill="#1a1a1a"/><rect x="514" y="43.5" width="12" height="12" fill="#1a1a1a"/><rect x="527" y="43.5" width="12" height="12" fill="#1a1a1a"/><rect x="540" y="43.5" width="12" height="12" fill="#1a1a1a"/><rect x="553" y="43.5" width="12" height="12" fill="#1a1a1a"/><rect x="566" y="43.5" width="12" height="12" fill="#1a1a1a"/><rect x="579" y="43.5" width="12" height="12" fill="#1a1a1a"/><rect x="592" y="43.5" width="12" height="12" fill="#1a1a1a"/><rect x="605" y="43.5" width="12" height="12" fill="#1a1a1a"/><rect x="514" y="56.5" width="12" height="12" fill="#1a1a1a"/><rect x="527" y="56.5" width="12" height="12" fill="#1a1a1a"/><rect x="514" y="69.5" width="12" height="12" fill="#1a1a1a"/><rect x="527" y="69.5" width="12" height="12" fill="#1a1a1a"/><rect x="514" y="82.5" width="12" height="12" fill="#1a1a1a"/><rect x="527" y="82.5" width="12" height="12" fill="#1a1a1a"/><rect x="514" y="95.5" width="12" height="12" fill="#1a1a1a"/><rect x="527" y="95.5" width="12" height="12" fill="#1a1a1a"/><rect x="540" y="95.5" width="12" height="12" fill="#1a1a1a"/><rect x="553" y="95.5" width="12" height="12" fill="#1a1a1a"/><rect x="566" y="95.5" width="12" height="12" fill="#1a1a1a"/><rect x="579" y="95.5" width="12" height="12" fill="#1a1a1a"/><rect x="514" y="108.5" width="12" height="12" fill="#1a1a1a"/><rect x="527" y="108.5" width="12" height="12" fill="#1a1a1a"/><rect x="514" y="121.5" width="12" height="12" fill="#1a1a1a"/><rect x="527" y="121.5" width="12" height="12" fill="#1a1a1a"/><rect x="514" y="134.5" width="12" height="12" fill="#1a1a1a"/><rect x="527" y="134.5" width="12" height="12" fill="#1a1a1a"/><rect x="514" y="147.5" width="12" height="12" fill="#1a1a1a"/><rect x="527" y="147.5" width="12" height="12" fill="#1a1a1a"/><rect x="540" y="147.5" width="12" height="12" fill="#1a1a1a"/><rect x="553" y="147.5" width="12" height="12" fill="#1a1a1a"/><rect x="566" y="147.5" width="12" height="12" fill="#1a1a1a"/><rect x="579" y="147.5" width="12" height="12" fill="#1a1a1a"/><rect x="592" y="147.5" width="12" height="12" fill="#1a1a1a"/><rect x="605" y="147.5" width="12" height="12" fill="#1a1a1a"/><rect x="644" y="43.5" width="12" height="12" fill="#1a1a1a"/><rect x="657" y="43.5" width="12" height="12" fill="#1a1a1a"/><rect x="722" y="43.5" width="12" height="12" fill="#1a1a1a"/><rect x="735" y="43.5" width="12" height="12" fill="#1a1a1a"/><rect x="644" y="56.5" width="12" height="12" fill="#1a1a1a"/><rect x="657" y="56.5" width="12" height="12" fill="#1a1a1a"/><rect x="670" y="56.5" width="12" height="12" fill="#1a1a1a"/><rect x="722" y="56.5" width="12" height="12" fill="#1a1a1a"/><rect x="735" y="56.5" width="12" height="12" fill="#1a1a1a"/><rect x="644" y="69.5" width="12" height="12" fill="#1a1a1a"/><rect x="657" y="69.5" width="12" height="12" fill="#1a1a1a"/><rect x="670" y="69.5" width="12" height="12" fill="#1a1a1a"/><rect x="683" y="69.5" width="12" height="12" fill="#1a1a1a"/><rect x="722" y="69.5" width="12" height="12" fill="#1a1a1a"/><rect x="735" y="69.5" width="12" height="12" fill="#1a1a1a"/><rect x="644" y="82.5" width="12" height="12" fill="#1a1a1a"/><rect x="657" y="82.5" width="12" height="12" fill="#1a1a1a"/><rect x="683" y="82.5" width="12" height="12" fill="#1a1a1a"/><rect x="696" y="82.5" width="12" height="12" fill="#1a1a1a"/><rect x="722" y="82.5" width="12" height="12" fill="#1a1a1a"/><rect x="735" y="82.5" width="12" height="12" fill="#1a1a1a"/><rect x="644" y="95.5" width="12" height="12" fill="#1a1a1a"/><rect x="657" y="95.5" width="12" height="12" fill="#1a1a1a"/><rect x="696" y="95.5" width="12" height="12" fill="#1a1a1a"/><rect x="709" y="95.5" width="12" height="12" fill="#1a1a1a"/><rect x="722" y="95.5" width="12" height="12" fill="#1a1a1a"/><rect x="735" y="95.5" width="12" height="12" fill="#1a1a1a"/><rect x="644" y="108.5" width="12" height="12" fill="#1a1a1a"/><rect x="657" y="108.5" width="12" height="12" fill="#1a1a1a"/><rect x="709" y="108.5" width="12" height="12" fill="#1a1a1a"/><rect x="722" y="108.5" width="12" height="12" fill="#1a1a1a"/><rect x="735" y="108.5" width="12" height="12" fill="#1a1a1a"/><rect x="644" y="121.5" width="12" height="12" fill="#1a1a1a"/><rect x="657" y="121.5" width="12" height="12" fill="#1a1a1a"/><rect x="722" y="121.5" width="12" height="12" fill="#1a1a1a"/><rect x="735" y="121.5" width="12" height="12" fill="#1a1a1a"/><rect x="644" y="134.5" width="12" height="12" fill="#1a1a1a"/><rect x="657" y="134.5" width="12" height="12" fill="#1a1a1a"/><rect x="722" y="134.5" width="12" height="12" fill="#1a1a1a"/><rect x="735" y="134.5" width="12" height="12" fill="#1a1a1a"/><rect x="644" y="147.5" width="12" height="12" fill="#1a1a1a"/><rect x="657" y="147.5" width="12" height="12" fill="#1a1a1a"/><rect x="722" y="147.5" width="12" height="12" fill="#1a1a1a"/><rect x="735" y="147.5" width="12" height="12" fill="#1a1a1a"/><rect x="774" y="43.5" width="12" height="12" fill="#1a1a1a"/><rect x="787" y="43.5" width="12" height="12" fill="#1a1a1a"/><rect x="800" y="43.5" width="12" height="12" fill="#1a1a1a"/><rect x="813" y="43.5" width="12" height="12" fill="#1a1a1a"/><rect x="826" y="43.5" width="12" height="12" fill="#1a1a1a"/><rect x="839" y="43.5" width="12" height="12" fill="#1a1a1a"/><rect x="852" y="43.5" width="12" height="12" fill="#1a1a1a"/><rect x="865" y="43.5" width="12" height="12" fill="#1a1a1a"/><rect x="813" y="56.5" width="12" height="12" fill="#1a1a1a"/><rect x="826" y="56.5" width="12" height="12" fill="#1a1a1a"/><rect x="813" y="69.5" width="12" height="12" fill="#1a1a1a"/><rect x="826" y="69.5" width="12" height="12" fill="#1a1a1a"/><rect x="813" y="82.5" width="12" height="12" fill="#1a1a1a"/><rect x="826" y="82.5" width="12" height="12" fill="#1a1a1a"/><rect x="813" y="95.5" width="12" height="12" fill="#1a1a1a"/><rect x="826" y="95.5" width="12" height="12" fill="#1a1a1a"/><rect x="813" y="108.5" width="12" height="12" fill="#1a1a1a"/><rect x="826" y="108.5" width="12" height="12" fill="#1a1a1a"/><rect x="813" y="121.5" width="12" height="12" fill="#1a1a1a"/><rect x="826" y="121.5" width="12" height="12" fill="#1a1a1a"/><rect x="813" y="134.5" width="12" height="12" fill="#1a1a1a"/><rect x="826" y="134.5" width="12" height="12" fill="#1a1a1a"/><rect x="813" y="147.5" width="12" height="12" fill="#1a1a1a"/><rect x="826" y="147.5" width="12" height="12" fill="#1a1a1a"/><rect x="930" y="43.5" width="12" height="12" fill="#1a1a1a"/><rect x="943" y="43.5" width="12" height="12" fill="#1a1a1a"/><rect x="956" y="43.5" width="12" height="12" fill="#1a1a1a"/><rect x="969" y="43.5" width="12" height="12" fill="#1a1a1a"/><rect x="982" y="43.5" width="12" height="12" fill="#1a1a1a"/><rect x="995" y="43.5" width="12" height="12" fill="#1a1a1a"/><rect x="969" y="56.5" width="12" height="12" fill="#1a1a1a"/><rect x="982" y="56.5" width="12" height="12" fill="#1a1a1a"/><rect x="969" y="69.5" width="12" height="12" fill="#1a1a1a"/><rect x="982" y="69.5" width="12" height="12" fill="#1a1a1a"/><rect x="969" y="82.5" width="12" height="12" fill="#1a1a1a"/><rect x="982" y="82.5" width="12" height="12" fill="#1a1a1a"/><rect x="969" y="95.5" width="12" height="12" fill="#1a1a1a"/><rect x="982" y="95.5" width="12" height="12" fill="#1a1a1a"/><rect x="969" y="108.5" width="12" height="12" fill="#1a1a1a"/><rect x="982" y="108.5" width="12" height="12" fill="#1a1a1a"/><rect x="904" y="121.5" width="12" height="12" fill="#1a1a1a"/><rect x="917" y="121.5" width="12" height="12" fill="#1a1a1a"/><rect x="969" y="121.5" width="12" height="12" fill="#1a1a1a"/><rect x="982" y="121.5" width="12" height="12" fill="#1a1a1a"/><rect x="904" y="134.5" width="12" height="12" fill="#1a1a1a"/><rect x="917" y="134.5" width="12" height="12" fill="#1a1a1a"/><rect x="969" y="134.5" width="12" height="12" fill="#1a1a1a"/><rect x="982" y="134.5" width="12" height="12" fill="#1a1a1a"/><rect x="917" y="147.5" width="12" height="12" fill="#1a1a1a"/><rect x="930" y="147.5" width="12" height="12" fill="#1a1a1a"/><rect x="943" y="147.5" width="12" height="12" fill="#1a1a1a"/><rect x="956" y="147.5" width="12" height="12" fill="#1a1a1a"/><rect x="969" y="147.5" width="12" height="12" fill="#1a1a1a"/><rect x="1060" y="43.5" width="12" height="12" fill="#1a1a1a"/><rect x="1073" y="43.5" width="12" height="12" fill="#1a1a1a"/><rect x="1086" y="43.5" width="12" height="12" fill="#1a1a1a"/><rect x="1099" y="43.5" width="12" height="12" fill="#1a1a1a"/><rect x="1047" y="56.5" width="12" height="12" fill="#1a1a1a"/><rect x="1060" y="56.5" width="12" height="12" fill="#1a1a1a"/><rect x="1099" y="56.5" width="12" height="12" fill="#1a1a1a"/><rect x="1112" y="56.5" width="12" height="12" fill="#1a1a1a"/><rect x="1034" y="69.5" width="12" height="12" fill="#1a1a1a"/><rect x="1047" y="69.5" width="12" height="12" fill="#1a1a1a"/><rect x="1112" y="69.5" width="12" height="12" fill="#1a1a1a"/><rect x="1125" y="69.5" width="12" height="12" fill="#1a1a1a"/><rect x="1034" y="82.5" width="12" height="12" fill="#1a1a1a"/><rect x="1047" y="82.5" width="12" height="12" fill="#1a1a1a"/><rect x="1112" y="82.5" width="12" height="12" fill="#1a1a1a"/><rect x="1125" y="82.5" width="12" height="12" fill="#1a1a1a"/><rect x="1034" y="95.5" width="12" height="12" fill="#1a1a1a"/><rect x="1047" y="95.5" width="12" height="12" fill="#1a1a1a"/><rect x="1060" y="95.5" width="12" height="12" fill="#1a1a1a"/><rect x="1073" y="95.5" width="12" height="12" fill="#1a1a1a"/><rect x="1086" y="95.5" width="12" height="12" fill="#1a1a1a"/><rect x="1099" y="95.5" width="12" height="12" fill="#1a1a1a"/><rect x="1112" y="95.5" width="12" height="12" fill="#1a1a1a"/><rect x="1125" y="95.5" width="12" height="12" fill="#1a1a1a"/><rect x="1034" y="108.5" width="12" height="12" fill="#1a1a1a"/><rect x="1047" y="108.5" width="12" height="12" fill="#1a1a1a"/><rect x="1112" y="108.5" width="12" height="12" fill="#1a1a1a"/><rect x="1125" y="108.5" width="12" height="12" fill="#1a1a1a"/><rect x="1034" y="121.5" width="12" height="12" fill="#1a1a1a"/><rect x="1047" y="121.5" width="12" height="12" fill="#1a1a1a"/><rect x="1112" y="121.5" width="12" height="12" fill="#1a1a1a"/><rect x="1125" y="121.5" width="12" height="12" fill="#1a1a1a"/><rect x="1034" y="134.5" width="12" height="12" fill="#1a1a1a"/><rect x="1047" y="134.5" width="12" height="12" fill="#1a1a1a"/><rect x="1112" y="134.5" width="12" height="12" fill="#1a1a1a"/><rect x="1125" y="134.5" width="12" height="12" fill="#1a1a1a"/><rect x="1034" y="147.5" width="12" height="12" fill="#1a1a1a"/><rect x="1047" y="147.5" width="12" height="12" fill="#1a1a1a"/><rect x="1112" y="147.5" width="12" height="12" fill="#1a1a1a"/><rect x="1125" y="147.5" width="12" height="12" fill="#1a1a1a"/><rect x="1164" y="43.5" width="12" height="12" fill="#1a1a1a"/><rect x="1177" y="43.5" width="12" height="12" fill="#1a1a1a"/><rect x="1190" y="43.5" width="12" height="12" fill="#1a1a1a"/><rect x="1203" y="43.5" width="12" height="12" fill="#1a1a1a"/><rect x="1216" y="43.5" width="12" height="12" fill="#1a1a1a"/><rect x="1229" y="43.5" width="12" height="12" fill="#1a1a1a"/><rect x="1242" y="43.5" width="12" height="12" fill="#1a1a1a"/><rect x="1255" y="43.5" width="12" height="12" fill="#1a1a1a"/><rect x="1203" y="56.5" width="12" height="12" fill="#1a1a1a"/><rect x="1216" y="56.5" width="12" height="12" fill="#1a1a1a"/><rect x="1203" y="69.5" width="12" height="12" fill="#1a1a1a"/><rect x="1216" y="69.5" width="12" height="12" fill="#1a1a1a"/><rect x="1203" y="82.5" width="12" height="12" fill="#1a1a1a"/><rect x="1216" y="82.5" width="12" height="12" fill="#1a1a1a"/><rect x="1203" y="95.5" width="12" height="12" fill="#1a1a1a"/><rect x="1216" y="95.5" width="12" height="12" fill="#1a1a1a"/><rect x="1203" y="108.5" width="12" height="12" fill="#1a1a1a"/><rect x="1216" y="108.5" width="12" height="12" fill="#1a1a1a"/><rect x="1203" y="121.5" width="12" height="12" fill="#1a1a1a"/><rect x="1216" y="121.5" width="12" height="12" fill="#1a1a1a"/><rect x="1203" y="134.5" width="12" height="12" fill="#1a1a1a"/><rect x="1216" y="134.5" width="12" height="12" fill="#1a1a1a"/><rect x="1164" y="147.5" width="12" height="12" fill="#1a1a1a"/><rect x="1177" y="147.5" width="12" height="12" fill="#1a1a1a"/><rect x="1190" y="147.5" width="12" height="12" fill="#1a1a1a"/><rect x="1203" y="147.5" width="12" height="12" fill="#1a1a1a"/><rect x="1216" y="147.5" width="12" height="12" fill="#1a1a1a"/><rect x="1229" y="147.5" width="12" height="12" fill="#1a1a1a"/><rect x="1242" y="147.5" width="12" height="12" fill="#1a1a1a"/><rect x="1255" y="147.5" width="12" height="12" fill="#1a1a1a"/><rect x="1294" y="43.5" width="12" height="12" fill="#1a1a1a"/><rect x="1307" y="43.5" width="12" height="12" fill="#1a1a1a"/><rect x="1294" y="56.5" width="12" height="12" fill="#1a1a1a"/><rect x="1307" y="56.5" width="12" height="12" fill="#1a1a1a"/><rect x="1294" y="69.5" width="12" height="12" fill="#1a1a1a"/><rect x="1307" y="69.5" width="12" height="12" fill="#1a1a1a"/><rect x="1294" y="82.5" width="12" height="12" fill="#1a1a1a"/><rect x="1307" y="82.5" width="12" height="12" fill="#1a1a1a"/><rect x="1294" y="95.5" width="12" height="12" fill="#1a1a1a"/><rect x="1307" y="95.5" width="12" height="12" fill="#1a1a1a"/><rect x="1294" y="108.5" width="12" height="12" fill="#1a1a1a"/><rect x="1307" y="108.5" width="12" height="12" fill="#1a1a1a"/><rect x="1294" y="121.5" width="12" height="12" fill="#1a1a1a"/><rect x="1307" y="121.5" width="12" height="12" fill="#1a1a1a"/><rect x="1294" y="134.5" width="12" height="12" fill="#1a1a1a"/><rect x="1307" y="134.5" width="12" height="12" fill="#1a1a1a"/><rect x="1294" y="147.5" width="12" height="12" fill="#1a1a1a"/><rect x="1307" y="147.5" width="12" height="12" fill="#1a1a1a"/><rect x="1320" y="147.5" width="12" height="12" fill="#1a1a1a"/><rect x="1333" y="147.5" width="12" height="12" fill="#1a1a1a"/><rect x="1346" y="147.5" width="12" height="12" fill="#1a1a1a"/><rect x="1359" y="147.5" width="12" height="12" fill="#1a1a1a"/><rect x="1372" y="147.5" width="12" height="12" fill="#1a1a1a"/><rect x="1385" y="147.5" width="12" height="12" fill="#1a1a1a"/><text x="1398" y="205.5" text-anchor="end" font-family="Consolas,monospace" font-size="20" fill="#555" letter-spacing="3">policy guardrails for coding agents</text><g filter="url(#bshadow)"><rect x="960" y="250" width="240" height="32" fill="url(#gDark)" rx="6"/><rect x="964" y="251" width="232" height="1" fill="rgba(255,255,255,0.15)" rx="1"/></g><g transform="translate(972,256) scale(1.25)"><path d="M8 0C3.58 0 0 3.58 0 8c0 3.54 2.29 6.53 5.47 7.59.4.07.55-.17.55-.38 0-.19-.01-.82-.01-1.49-2.01.37-2.53-.49-2.69-.94-.09-.23-.48-.94-.82-1.13-.28-.15-.68-.52-.01-.53.63-.01 1.08.58 1.23.82.72 1.21 1.87.87 2.33.66.07-.52.28-.87.51-1.07-1.78-.2-3.64-.89-3.64-3.95 0-.87.31-1.59.82-2.15-.08-.2-.36-1.02.08-2.12 0 0 .67-.21 2.2.82.64-.18 1.32-.27 2-.27.68 0 1.36.09 2 .27 1.53-1.04 2.2-.82 2.2-.82.44 1.1.16 1.92.08 2.12.51.56.82 1.27.82 2.15 0 3.07-1.87 3.75-3.65 3.95.29.25.54.73.54 1.48 0 1.07-.01 1.93-.01 2.2 0 .21.15.46.55.38A8.013 8.013 0 0016 8c0-4.42-3.58-8-8-8z" fill="#fff" fill-rule="evenodd"/></g><text x="1004" y="266" text-anchor="start" dominant-baseline="central" font-family="Consolas,monospace" font-size="16" font-weight="600" fill="#eee" letter-spacing="0.5">lud1161/agentjail</text><g filter="url(#bshadow)"><rect x="1214" y="250" width="74" height="32" fill="url(#gGray)" rx="6"/><rect x="1282" y="250" width="6" height="32" fill="url(#gGray)"/><rect x="1288" y="250" width="110" height="32" fill="url(#gGreen)" rx="6"/><rect x="1288" y="250" width="6" height="32" fill="url(#gGreen)"/><rect x="1218" y="251" width="176" height="1" fill="rgba(255,255,255,0.2)" rx="1"/></g><text x="1251" y="266" text-anchor="middle" dominant-baseline="central" font-family="Verdana,sans-serif" font-size="14" font-weight="700" fill="#fff">license</text><text x="1343" y="266" text-anchor="middle" dominant-baseline="central" font-family="Verdana,sans-serif" font-size="14" font-weight="700" fill="#1a1a1a">Apache-2.0</text><text x="330" y="360" font-family="Verdana,Geneva,sans-serif" font-size="28" font-weight="700" fill="#cc2222">Star us on GitHub</text><g transform="translate(585,340)"><polygon points="15,0 19.5,10 30,11.5 22.5,19 24.5,29.5 15,24.5 5.5,29.5 7.5,19 0,11.5 10.5,10" fill="#F9A825" stroke="#E6950C" stroke-width="1" stroke-linejoin="round"/></g><g id="curly-arrow"><path d="M 480 330 C 540 350, 670 375, 700 375 C 735 375, 735 340, 735 335 C 735 305, 700 305, 695 305 C 665 305, 665 340, 665 345 C 665 375, 700 375, 705 375 C 720 370, 1020 328, 1060 288" fill="none" stroke="#cc2222" stroke-width="4" stroke-dasharray="12 8" stroke-linecap="round" stroke-linejoin="round"/><polygon points="1060,284 1048,308 1072,308" fill="#cc2222"/></g></svg>